HIERARCHY
ROOT Hips
{
	OFFSET	0.00	0.00	0.00
	CHANNELS 6 Xposition Yposition Zposition Zrotation Yrotation Xrotation
	JOINT Spine
	{
		OFFSET	 0.00	0.1	 0.00
		CHANNELS 3 Zrotation Yrotation Xrotation
		JOINT Spine1
		{
			OFFSET	 0.00	 24.5913012437421	 0.00
			CHANNELS 3 Zrotation Yrotation Xrotation
            JOINT Neck
            {
                OFFSET	 0.00	 24.8462964506057	 0.00
                CHANNELS 3 Zrotation Yrotation Xrotation
                JOINT Head
                {
                    OFFSET	 0.00	 9.27524780924562	 0.00
                    CHANNELS 3 Zrotation Yrotation Xrotation
                    End Site
                    {
                        OFFSET	 0.00	 11.4999962169752	 0.00
                    }
                }
            }
			JOINT LeftShoulder
			{
				OFFSET	 0.00	 24.8462964506057	 0.00
				CHANNELS 3 Zrotation Yrotation Xrotation
				JOINT LeftUpArm
				{
					OFFSET	 0.00	 12.4881979654096	 0.00
					CHANNELS 3 Zrotation Yrotation Xrotation
					JOINT LeftForeArm
					{
						OFFSET	 0.00	25.9758046908119	 0.00
						CHANNELS 3 Zrotation Yrotation Xrotation
						JOINT LeftHand
						{
							OFFSET	 0.00	24.5542024364365	 0.00
							CHANNELS 3 Zrotation Yrotation Xrotation
							JOINT LeftHandThumb
							{
								OFFSET	 0.00	0.00	 0.00
								CHANNELS 3 Zrotation Yrotation Xrotation
								End Site
								{
									OFFSET	 0.00	0.00	10.0000003353624
								}
							}
							JOINT L_Wrist_End
							{
								OFFSET	 0.00	9.9999967115358	 0.00
								CHANNELS 3 Zrotation Yrotation Xrotation
								End Site
								{
									OFFSET	 0.00	 0.00	 0.00
								}
							}
						}
					}
				}
			}
			JOINT RightShoulder
			{
				OFFSET	 0.00	 24.8462964506057	 0.00
				CHANNELS 3 Zrotation Yrotation Xrotation
				JOINT RightUpArm
				{
					OFFSET	 0.00	 12.4881979654096	 0.00
					CHANNELS 3 Zrotation Yrotation Xrotation
					JOINT RightForeArm
					{
						OFFSET	 0.00	25.9758046908119	 0.00
						CHANNELS 3 Zrotation Yrotation Xrotation
						JOINT RightHand
						{
							OFFSET	 0.00	24.5542024364365	 0.00
							CHANNELS 3 Zrotation Yrotation Xrotation
							JOINT RightHandThumb
							{
								OFFSET	 0.00	0.00	 0.00
								CHANNELS 3 Zrotation Yrotation Xrotation
								End Site
								{
									OFFSET	 0.00	0.00	10.0000003353624
								}
							}
							JOINT R_Wrist_End
							{
								OFFSET	 0.00	9.9999967115358	 0.00
								CHANNELS 3 Zrotation Yrotation Xrotation
								End Site
								{
									OFFSET	 0.00	 0.00	 0.00
								}
							}
						}
					}
				}
			}
		}
	}
	JOINT LeftUpLeg
	{
		OFFSET	 12.719394002717	 0.00	 0.00
		CHANNELS 3 Zrotation Yrotation Xrotation
		JOINT LeftLowLeg
		{
			OFFSET	 0.00	-43.429100912261	 0.00
			CHANNELS 3 Zrotation Yrotation Xrotation
			JOINT LeftFoot
			{
				OFFSET	 0.00	-44.8767017425826	 0.00
				CHANNELS 3 Zrotation Yrotation Xrotation
				JOINT LeftToeBase
                {
                    OFFSET	 0.00	0.00	 15.1507020887566
                    CHANNELS 3 Zrotation Yrotation Xrotation
                    End Site
                    {
                        OFFSET	 0.00	0.00	 7.5000010571191
                    }
                }
			}
		}
	}
	JOINT RightUpLeg
	{
		OFFSET	 -12.719393604653	 0.00	 0.00
		CHANNELS 3 Zrotation Yrotation Xrotation
		JOINT RightLowLeg
		{
			OFFSET	 0.00	-43.429100912261	 0.00
			CHANNELS 3 Zrotation Yrotation Xrotation
			JOINT RightFoot
			{
				OFFSET	 0.00	-44.8767017425826	 0.00
				CHANNELS 3 Zrotation Yrotation Xrotation
				JOINT RightToeBase
                {
                    OFFSET	 0.00	0.00	 15.1507020887566
                    CHANNELS 3 Zrotation Yrotation Xrotation
                    End Site 
                    {
                        OFFSET	 0.00	0.00	 7.49999965609858
                    }
                }   
			}
		}
	}
}
MOTION 
Frames:	4 
Frame Time: 0.04 
 -76.4843994140625 91.2281005859375 92.956201171875 3.3762000906338296 23.423585760723068 0.13704831437167145 1.9121066746531756 0.11031404252129419 -18.3189343146204 -7.470031967180567 2.9691267463224467 19.802892755919814 11.556104122247909 -14.38652031491037 53.13807051923742 4.0964396487592545 -6.023142749670747 -83.91991233366241 -115.59708279035293 6.5616770556295565 -1.8317330056610268 -41.19177049547609 27.528908792391 7.835812228454421 0.0 0.0 19.7539005279541 10.01819921050868 -10.080269608997819 -16.839507950806198 0.0 0.0 0.0 0.0 0.0 0.0 121.6827245137037 -4.165852887985467 -4.72238487588135 46.337733542420125 -15.509255966981884 4.406253715636659 0.0 0.0 21.110799789428714 3.2095229588235905 20.265190993883262 -10.529617999805428 0.0 0.0 0.0 0.0 0.0 0.0 -4.938864405371398 -12.160110320017854 1.2667467415999667 0.0 0.0 17.18160057067871 -22.09426270184141 10.536924601172256 -11.194953840715261 0.0 0.0 -16.099849700927734 3.0486279868369985 19.739430691119498 -0.1581140601004196 0.0 0.0 23.080499649047855 30.728972593744807 -7.241853108769213 -16.863293682694977 0.0 0.0 -17.03990936279297 
  -76.497802734375 91.23259887695312 93.00599975585938 3.3485476814517283 23.654159846147934 0.24021055294648067 1.8674047037892982 0.029642475119229916 -18.407902408511973 -7.390532006893537 2.976593556555818 19.84048876294769 11.535680205409216 -14.51758940821587 53.047783494755706 4.080758378734594 -6.022666753468661 -83.90759091126938 -115.61553966574101 6.5526266152186885 -1.8460837714292073 -41.12697079910005 27.63840457172871 7.911420200614602 0.0 0.0 19.824800491333008 9.995274431316634 -9.756116321242539 -16.80447915279719 0.0 0.0 0.0 0.0 0.0 0.0 121.66969629829627 -4.027131636657033 -4.753513537054808 46.38716444268156 -15.477357430096689 4.303521320915515 0.0 0.0 21.12229919433594 3.1664604482922574 20.20536549703072 -10.513187059833331 0.0 0.0 0.0 0.0 0.0 0.0 -4.867857664122058 -12.374598789605631 1.1498065066165364 0.0 0.0 17.20210075378418 -22.117650938458368 10.507425106429963 -11.201401110992688 0.0 0.0 -16.081729888916016 3.0917772761225906 19.6295443102645 -0.14268313311308928 0.0 0.0 22.921600341796875 30.706072079863212 -7.378557207336332 -16.876582680839288 0.0 0.0 -17.003799438476562 
  -76.52030029296876 91.23610229492188 93.04229736328125 3.3350454081079337 23.85762942878131 0.3260520049689344 1.8092508656962218 -0.019448931612421283 -18.429301408182496 -7.310469433498845 3.009864035991284 19.839114467644354 11.518480099797298 -14.636454154645214 52.93672204428134 4.135768370585108 -6.019662821969543 -83.89786166918533 -115.6474032986081 6.610687460008308 -1.8252798225194269 -41.0489865522377 27.69411647377321 8.007967654551878 0.0 0.0 19.83180046081543 10.043029215710066 -9.6230119519178 -16.72490320551597 0.0 0.0 0.0 0.0 0.0 0.0 121.6502663836212 -3.989057667520204 -4.7895903099655 46.38459189817264 -15.492887268751177 4.325288393009875 0.0 0.0 21.083000183105465 3.227796410187642 20.079043811138302 -10.573320690840944 0.0 0.0 0.0 0.0 0.0 0.0 -4.813979166480959 -12.56993588199195 1.0528585684135312 0.0 0.0 17.20949935913086 -22.15001902801489 10.493630516204291 -11.205372805394692 0.0 0.0 -16.04155921936035 3.1157957712970994 19.506141365825226 -0.14708909682312818 0.0 0.0 22.82040023803711 30.698719357286144 -7.439079493355115 -16.876346613704847 0.0 0.0 -17.022090911865234 
  -76.54240112304687 91.23380126953126 93.03419799804688 3.376969656598078 23.953261803286836 0.4729938107158302 1.8046998794407527 0.10619501123062619 -18.343532767512272 -7.4207519884515225 3.045599465297177 19.690657668323034 11.579094224337165 -14.863694557895187 52.896612645768634 4.011574085975197 -5.921856499754869 -83.91337113286622 -115.69842904582248 6.620600966029837 -1.841866858886489 -40.89181673143826 27.792535501368672 8.041059702746923 0.0 0.0 19.878499984741214 10.17854460758096 -9.98851696587713 -16.76128513332947 0.0 0.0 0.0 0.0 0.0 0.0 121.60029716527058 -3.888244489163448 -4.821203611866335 46.450464977973 -15.730992239213569 4.186914038454438 0.0 0.0 21.239700317382812 3.1605354681604694 19.88555448691824 -10.61184291305003 0.0 0.0 0.0 0.0 0.0 0.0 -4.81509478991991 -12.692491188165407 0.8981464048534591 0.0 0.0 17.218599319458008 -22.22155921341173 10.503398846320446 -11.201354196997638 0.0 0.0 -16.028980255126953 3.0515112718585744 19.40727558353595 -0.2133992911277622 0.0 0.0 22.680099487304688 30.770295465831065 -7.4058063580354005 -16.920949356307926 0.0 0.0 -16.95517921447754 
